<?xml version="1.0" encoding="UTF-8" standalone="no"?>
<!-- Created with Inkscape (http://www.inkscape.org/) -->

<svg
   xmlns:dc="http://purl.org/dc/elements/1.1/"
   xmlns:cc="http://creativecommons.org/ns#"
   xmlns:rdf="http://www.w3.org/1999/02/22-rdf-syntax-ns#"
   xmlns:svg="http://www.w3.org/2000/svg"
   xmlns="http://www.w3.org/2000/svg"
   xmlns:sodipodi="http://sodipodi.sourceforge.net/DTD/sodipodi-0.dtd"
   xmlns:inkscape="http://www.inkscape.org/namespaces/inkscape"
   width="59.531002mm"
   height="59.531002mm"
   viewBox="0 0 59.531002 59.531003"
   version="1.1"
   id="svg8"
   inkscape:version="0.92.2 (5c3e80d, 2017-08-06)"
   sodipodi:docname="email.svg">
  <defs
     id="defs2" />
  <sodipodi:namedview
     id="base"
     pagecolor="#ffffff"
     bordercolor="#666666"
     borderopacity="1.0"
     inkscape:pageopacity="0.0"
     inkscape:pageshadow="2"
     inkscape:zoom="1.6839268"
     inkscape:cx="194.75245"
     inkscape:cy="90.299553"
     inkscape:document-units="mm"
     inkscape:current-layer="layer1"
     showgrid="false"
     fit-margin-top="0"
     fit-margin-left="0"
     fit-margin-right="0"
     fit-margin-bottom="0"
     inkscape:window-width="1366"
     inkscape:window-height="705"
     inkscape:window-x="-8"
     inkscape:window-y="-8"
     inkscape:window-maximized="1"
     inkscape:snap-bbox="true" />
  <metadata
     id="metadata5">
    <rdf:RDF>
      <cc:Work
         rdf:about="">
        <dc:format>image/svg+xml</dc:format>
        <dc:type
           rdf:resource="http://purl.org/dc/dcmitype/StillImage" />
        <dc:title></dc:title>
      </cc:Work>
    </rdf:RDF>
  </metadata>
  <g
     inkscape:label="Capa 1"
     inkscape:groupmode="layer"
     id="layer1"
     transform="translate(-3.6116962,21.928206)">
    <g
       transform="matrix(0.28222222,0,0,0.28222222,14.867067,-146.25158)"
       id="layer1-5"
       inkscape:label="Laag 1"
       clip-path="none" />
    <circle
       style="opacity:1;fill:#666666;fill-opacity:1;stroke-width:0.2645832"
       id="path3786"
       cx="33.377197"
       cy="7.8372946"
       r="29.765501" />
    <path
       inkscape:connector-curvature="0"
       id="path4411"
       d="M 19.674521,15.674353 C 19.136992,15.428812 18.550355,15.022338 18.370883,14.771124 17.951147,14.18352 17.926775,2.1364503 18.343655,1.3149663 c 0.1645,-0.32413197 0.751138,-0.79586097 1.303641,-1.04822695 0.961149,-0.43904404 1.552473,-0.45888504 13.686921,-0.45970604 14.072942,0 13.949519,-0.01349 14.919248,1.51750099 0.711177,1.122818 0.680908,12.2045797 -0.03627,13.3371047 -0.929024,1.466768 -0.870138,1.460988 -14.896964,1.460042 -12.002824,0 -12.719584,-0.02441 -13.645575,-0.447328 z M 45.66597,13.402055 c 0.382942,-0.232303 0.601099,-0.537749 0.484772,-0.67875 -0.355081,-0.430451 -6.610269,-4.1844257 -6.972423,-4.1844257 -0.186447,0 -1.151669,0.508717 -2.144943,1.130526 -0.99327,0.6218137 -2.281833,1.2482217 -2.863472,1.3920387 -1.24601,0.308097 -1.947099,0.08992 -4.842779,-1.5071407 -1.012618,-0.558503 -1.937886,-1.015424 -2.056163,-1.015424 -0.257911,0 -6.335906,3.7932377 -6.609592,4.1249897 -0.105192,0.127519 -0.04198,0.440819 0.140461,0.696273 0.324109,0.453655 0.605017,0.464323 12.249791,0.464323 11.111009,0 11.965225,-0.02861 12.614348,-0.42241 z M 23.105771,9.3378083 c 1.349651,-0.823401 2.453915,-1.619727 2.453915,-1.7697 0,-0.261877 -4.396418,-3.163584 -4.795374,-3.16506 -0.106852,0 -0.27751,0.231952 -0.379238,0.516345 -0.267898,0.748964 -0.235817,5.9177567 0.03673,5.9164977 0.126532,0 1.334316,-0.674728 2.683973,-1.4980827 z m 23.158837,-1.718183 c 0,-1.7778 -0.124777,-3.217325 -0.278926,-3.217325 -0.302096,0 -4.655706,2.663729 -4.979649,3.046775 -0.108568,0.128371 0.809168,0.832685 2.039407,1.565086 1.230221,0.732415 2.327935,1.4421747 2.439335,1.5772517 0.587703,0.712395 0.779833,-0.0199 0.779833,-2.9717877 z m -8.019699,-0.339474 c 6.496242,-3.81429 8.272054,-5.05736 7.77451,-5.4421589 -0.320286,-0.247732 -2.8139,-0.308277 -12.696083,-0.308277 -11.529647,0 -12.318773,0.02596 -12.637873,0.4152929 -0.394819,0.481702 -0.356616,0.50991 5.043211,3.721275 1.912758,1.137561 4.244603,2.558576 5.181885,3.157796 0.937277,0.599256 1.960191,1.09047 2.273145,1.091599 0.312952,0 2.590491,-1.184868 5.061205,-2.635527 z"
       style="opacity:1;fill:#f9f9f9;fill-opacity:1;fill-rule:nonzero;stroke:#ffffff;stroke-width:0;stroke-miterlimit:4;stroke-dasharray:none;stroke-opacity:1" />
  </g>
</svg>
