<?xml version="1.0" encoding="UTF-8" standalone="no"?>
<!-- Created with Inkscape (http://www.inkscape.org/) -->

<svg
   xmlns:dc="http://purl.org/dc/elements/1.1/"
   xmlns:cc="http://creativecommons.org/ns#"
   xmlns:rdf="http://www.w3.org/1999/02/22-rdf-syntax-ns#"
   xmlns:svg="http://www.w3.org/2000/svg"
   xmlns="http://www.w3.org/2000/svg"
   xmlns:sodipodi="http://sodipodi.sourceforge.net/DTD/sodipodi-0.dtd"
   xmlns:inkscape="http://www.inkscape.org/namespaces/inkscape"
   width="51.793793mm"
   height="65.333443mm"
   viewBox="0 0 51.793792 65.333443"
   version="1.1"
   id="svg8"
   inkscape:version="0.92.2 (5c3e80d, 2017-08-06)"
   sodipodi:docname="logo.svg">
  <defs
     id="defs2">
    <clipPath
       id="clipEmfPath1"
       clipPathUnits="userSpaceOnUse">
      <path
         id="path3699"
         d="M 0,0 H 75.976651 V 77.683991 H 0 Z"
         inkscape:connector-curvature="0" />
    </clipPath>
    <pattern
       y="0"
       x="0"
       height="6"
       width="6"
       patternUnits="userSpaceOnUse"
       id="EMFhbasepattern" />
  </defs>
  <sodipodi:namedview
     id="base"
     pagecolor="#ffffff"
     bordercolor="#666666"
     borderopacity="1.0"
     inkscape:pageopacity="0.0"
     inkscape:pageshadow="2"
     inkscape:zoom="1.6818881"
     inkscape:cx="191.17178"
     inkscape:cy="117.27056"
     inkscape:document-units="mm"
     inkscape:current-layer="layer1"
     showgrid="false"
     inkscape:window-width="1366"
     inkscape:window-height="705"
     inkscape:window-x="-8"
     inkscape:window-y="-8"
     inkscape:window-maximized="1"
     inkscape:measure-start="0,0"
     inkscape:measure-end="0,0"
     fit-margin-top="0"
     fit-margin-left="0"
     fit-margin-right="0"
     fit-margin-bottom="0" />
  <metadata
     id="metadata5">
    <rdf:RDF>
      <cc:Work
         rdf:about="">
        <dc:format>image/svg+xml</dc:format>
        <dc:type
           rdf:resource="http://purl.org/dc/dcmitype/StillImage" />
        <dc:title />
      </cc:Work>
    </rdf:RDF>
  </metadata>
  <g
     inkscape:label="Capa 1"
     inkscape:groupmode="layer"
     id="layer1"
     transform="translate(-0.15750656,0.01552621)">
    <rect
       id="rect3719-0"
       width="50.735462"
       height="64.275108"
       x="1.215836"
       y="1.0428071"
       style="opacity:1;fill:#e3dedb;fill-opacity:1;stroke-width:0.30702248"
       ry="0" />
    <rect
       id="rect3719"
       width="50.578148"
       height="64.275108"
       x="0.15750656"
       y="-0.015526207"
       style="opacity:1;fill:#ff6600;fill-opacity:1;stroke-width:0.30702248"
       ry="0" />
    <flowRoot
       xml:space="preserve"
       id="flowRoot3721-2"
       style="font-style:normal;font-weight:normal;font-size:40px;line-height:1.25;font-family:sans-serif;letter-spacing:0px;word-spacing:0px;fill:#000000;fill-opacity:1;stroke:none"
       transform="matrix(1.9418811,0,0,1.9418811,-546.11575,-76.345005)"><flowRegion
         id="flowRegion3723-1"><rect
           id="rect3725-4"
           width="226.27412"
           height="226.27414"
           x="337.39093"
           y="31.554937" /></flowRegion><flowPara
         id="flowPara3727-6"
         style="font-style:normal;font-variant:normal;font-weight:normal;font-stretch:normal;font-size:21.42157555px;font-family:Abracadabra;-inkscape-font-specification:Abracadabra;fill:#ffffff" /></flowRoot>    <flowRoot
       xml:space="preserve"
       id="flowRoot5340"
       style="font-style:normal;font-weight:normal;font-size:40px;line-height:1.25;font-family:sans-serif;letter-spacing:0px;word-spacing:0px;fill:#000000;fill-opacity:1;stroke:none"
       transform="matrix(0.26458333,0,0,0.26458333,-7.4083337,-6.3500003)"><flowRegion
         id="flowRegion5342"><rect
           id="rect5344"
           width="86.873116"
           height="70.710678"
           x="16.162441"
           y="144.69202" /></flowRegion><flowPara
         id="flowPara5346">desarrad</flowPara></flowRoot>    <flowRoot
       xml:space="preserve"
       id="flowRoot5348"
       style="font-style:normal;font-weight:normal;font-size:40px;line-height:1.25;font-family:sans-serif;letter-spacing:0px;word-spacing:0px;fill:#000000;fill-opacity:1;stroke:none"
       transform="matrix(0.26458333,0,0,0.26458333,-7.4083337,-6.3500003)"><flowRegion
         id="flowRegion5350"><rect
           id="rect5352"
           width="177.78685"
           height="113.13708"
           x="48.487324"
           y="265.91034" /></flowRegion><flowPara
         id="flowPara5354">desarrollador</flowPara></flowRoot>    <flowRoot
       xml:space="preserve"
       id="flowRoot5368"
       style="font-style:normal;font-weight:normal;font-size:40px;line-height:1.25;font-family:sans-serif;letter-spacing:0px;word-spacing:0px;fill:#000000;fill-opacity:1;stroke:none"
       transform="matrix(0.26458333,0,0,0.26458333,-7.4083337,-6.3500003)"><flowRegion
         id="flowRegion5370"><rect
           id="rect5372"
           width="64.679916"
           height="82.319893"
           x="26.459967"
           y="133.21095" /></flowRegion><flowPara
         id="flowPara5374">wEBEW</flowPara></flowRoot>    <flowRoot
       xml:space="preserve"
       id="flowRoot5384"
       style="font-style:normal;font-weight:normal;font-size:40px;line-height:1.25;font-family:sans-serif;letter-spacing:0px;word-spacing:0px;fill:#000000;fill-opacity:1;stroke:none"
       transform="matrix(0.26458333,0,0,0.26458333,-7.4083337,-6.3500003)"><flowRegion
         id="flowRegion5386"><rect
           id="rect5388"
           width="67.619911"
           height="45.569942"
           x="276.35965"
           y="-96.108742" /></flowRegion><flowPara
         id="flowPara5390" /></flowRoot>    <flowRoot
       xml:space="preserve"
       id="flowRoot3721-5"
       style="font-style:normal;font-weight:normal;font-size:40px;line-height:1.25;font-family:sans-serif;letter-spacing:0px;word-spacing:0px;fill:#000000;fill-opacity:1;stroke:none"
       transform="matrix(1.9418811,0,0,1.9418811,-647.20857,-80.551748)"><flowRegion
         id="flowRegion3723-7"><rect
           id="rect3725-8"
           width="24.983923"
           height="46.014229"
           x="337.19064"
           y="31.554937"
           ry="0" /></flowRegion><flowPara
         id="flowPara3727-0"
         style="font-style:normal;font-variant:normal;font-weight:normal;font-stretch:normal;font-size:21.42157555px;font-family:Roxanne;-inkscape-font-specification:Roxanne;fill:#ffffff">CE</flowPara></flowRoot>    <g
       id="g5512"
       transform="matrix(0.0215156,-0.00344027,0.00344027,0.0215156,26.368412,40.564177)"
       style="fill:#ffffff;stroke-width:1.74511719">
      <path
         id="path5508"
         d="m 360.4,33.7 c 24.7,14.5 49.3,265.8 30.6,276 C 372.3,320 82.6,341.3 75.9,320 c -6.8,-21.2 1.8,-152.7 11,-167.5 10.7,-17.2 24.6,-20.2 24.6,-20.2 0,0 -14.5,22.1 -15.3,37.2 -0.8,6 -5.9,91.7 2.6,110.5 8.4,18.7 57.8,21.4 155.4,4.4 97.7,-17 105.3,-15 105.3,-45.6 0,-30.5 -4.6,-149.7 -14.4,-162.6 -13.6,-18 -28.2,-14.4 -47.6,-12 -20.4,2.7 -48.4,6 -95,16.2 -46.8,10.2 -86.7,16.1 -102,16.1 -15.3,0 235.3,-77.3 260,-62.8 z"
         inkscape:connector-curvature="0"
         style="fill:#ffffff;stroke-width:1.74511719" />
      <path
         id="path5510"
         d="m 439.4,444 c -73,0 -376.3,5.2 -417.9,-10.1 -41.6,-15.4 7.2,-49 18.7,-60.4 11.4,-11.5 35.7,-28 41.6,-28 6,0 198.2,1.1 310,-5.2 a 238,238 0 0 1 65.8,55.3 c 76.4,-2 217.8,42.9 47.6,74.5 -279.6,52 -158.4,93.9 46.2,75.1 1.1,-0.3 8.6,-1.5 10.1,-1.8 11.4,-2.4 23,-1.5 27.7,0.2 14.5,5.4 15.6,6 36.2,19.4 20.6,13.5 6.2,42.7 -9.1,45 -8.8,1.2 -18,-3.5 -45,-24.6 -17.7,-13.7 -19.9,-21.7 -19.9,-28.3 v -5.5 c -220.2,21 -325.8,-31.9 -46.2,-83.9 170.1,-31.7 6,-69.2 -44.9,-66.6 17.2,24 18,45 -20.9,45 z"
         inkscape:connector-curvature="0"
         style="fill:#ffffff;stroke-width:1.74511719" />
    </g>
    <text
       xml:space="preserve"
       style="font-style:normal;font-weight:normal;font-size:10.58333302px;line-height:1.25;font-family:sans-serif;letter-spacing:0px;word-spacing:0px;fill:#000000;fill-opacity:1;stroke:none;stroke-width:0.26458332"
       x="1.5256379"
       y="33.163273"
       id="text5579"><tspan
         sodipodi:role="line"
         id="tspan5577"
         x="1.5256379"
         y="33.163273"
         style="font-style:normal;font-variant:normal;font-weight:normal;font-stretch:normal;font-size:41.59249878px;font-family:Roxanne;-inkscape-font-specification:Roxanne;fill:#ffffff;stroke-width:0.26458332">G</tspan></text>
    <text
       xml:space="preserve"
       style="font-style:normal;font-weight:normal;font-size:10.58333302px;line-height:1.25;font-family:sans-serif;letter-spacing:0px;word-spacing:0px;fill:#000000;fill-opacity:1;stroke:none;stroke-width:0.26458332"
       x="15.735835"
       y="61.813343"
       id="text5579-5"><tspan
         sodipodi:role="line"
         id="tspan5577-8"
         x="15.735835"
         y="61.813343"
         style="font-style:normal;font-variant:normal;font-weight:normal;font-stretch:normal;font-size:41.59249878px;font-family:Roxanne;-inkscape-font-specification:Roxanne;fill:#ffffff;stroke-width:0.26458332">C</tspan></text>
    <text
       xml:space="preserve"
       style="font-style:normal;font-weight:normal;font-size:10.58333302px;line-height:1.25;font-family:sans-serif;letter-spacing:0px;word-spacing:0px;fill:#000000;fill-opacity:1;stroke:none;stroke-width:0.26458332"
       x="-62.257267"
       y="15.65224"
       id="text5601"
       transform="rotate(-90)"><tspan
         sodipodi:role="line"
         id="tspan5599"
         x="-62.257267"
         y="15.65224"
         style="font-style:normal;font-variant:normal;font-weight:normal;font-stretch:normal;font-family:Roxanne;-inkscape-font-specification:Roxanne;fill:#ffffff;stroke-width:0.26458332">WEB</tspan></text>
    <text
       xml:space="preserve"
       style="font-style:normal;font-weight:normal;font-size:10.58333302px;line-height:1.25;font-family:sans-serif;letter-spacing:0px;word-spacing:0px;fill:#000000;fill-opacity:1;stroke:none;stroke-width:0.26458332"
       x="-61.775803"
       y="6.0382318"
       id="text5605"
       transform="rotate(-90)"><tspan
         sodipodi:role="line"
         id="tspan5603"
         x="-61.775803"
         y="6.0382318"
         style="font-style:normal;font-variant:normal;font-weight:bold;font-stretch:normal;font-size:3.88055563px;font-family:sans-serif;-inkscape-font-specification:'sans-serif Bold';fill:#ffffff;stroke-width:0.26458332">Desarrollador</tspan></text>
  </g>
</svg>
